<?xml version="1.0" encoding="UTF-8"?>
<svg xmlns="http://www.w3.org/2000/svg" xmlns:xlink="http://www.w3.org/1999/xlink" width="48pt" height="48pt" viewBox="0 0 48 48" version="1.1">
<g id="surface1">
<path style=" stroke:none;fill-rule:nonzero;fill:rgb(0%,0%,0%);fill-opacity:1;" d="M 19.371094 0.0390625 C 18.796875 0.140625 18.320312 0.398438 17.839844 0.863281 L 17.472656 1.21875 L 23.507812 7.253906 L 29.546875 13.289062 L 29.628906 13.214844 C 29.832031 13.035156 30.277344 12.492188 30.402344 12.269531 C 30.800781 11.554688 30.859375 10.632812 30.550781 9.863281 C 30.332031 9.328125 30.378906 9.378906 26.042969 5.027344 C 23.757812 2.734375 21.757812 0.753906 21.609375 0.632812 C 21.308594 0.390625 20.917969 0.1875 20.570312 0.09375 C 20.300781 0.0234375 19.632812 -0.0117188 19.371094 0.0390625 Z M 19.371094 0.0390625 "/>
<path style=" stroke:none;fill-rule:nonzero;fill:rgb(0%,0%,0%);fill-opacity:1;" d="M 9.335938 9.355469 L 2.867188 15.824219 L 8.90625 21.863281 L 14.945312 27.898438 L 20.511719 22.332031 L 21.191406 23.011719 L 21.871094 23.6875 L 21.769531 23.859375 C 21.644531 24.074219 21.628906 24.359375 21.734375 24.59375 C 21.800781 24.742188 22.972656 25.984375 39.515625 43.445312 C 42.847656 46.964844 43.664062 47.808594 43.820312 47.886719 C 43.972656 47.964844 44.054688 47.980469 44.304688 47.980469 C 44.558594 47.980469 44.636719 47.960938 44.792969 47.878906 C 45.046875 47.746094 47.765625 45.019531 47.886719 44.777344 C 48.050781 44.445312 48.019531 43.980469 47.8125 43.691406 C 47.753906 43.613281 46.113281 42.039062 44.167969 40.191406 C 42.222656 38.351562 38.257812 34.597656 35.363281 31.855469 C 32.46875 29.109375 28.898438 25.734375 27.429688 24.339844 C 25.546875 22.554688 24.71875 21.796875 24.605469 21.742188 C 24.371094 21.636719 24.121094 21.644531 23.875 21.765625 L 23.679688 21.863281 L 23.007812 21.1875 L 22.332031 20.511719 L 27.898438 14.945312 L 21.871094 8.914062 C 18.554688 5.597656 15.835938 2.886719 15.824219 2.886719 C 15.8125 2.886719 12.894531 5.796875 9.335938 9.355469 Z M 9.335938 9.355469 "/>
<path style=" stroke:none;fill-rule:nonzero;fill:rgb(0%,0%,0%);fill-opacity:1;" d="M 0.859375 17.839844 C 0.316406 18.410156 0.0546875 18.972656 0.0117188 19.6875 C -0.0273438 20.285156 0.136719 20.882812 0.46875 21.398438 C 0.632812 21.652344 8.695312 29.757812 9.144531 30.121094 C 9.464844 30.378906 9.734375 30.519531 10.125 30.644531 C 10.363281 30.71875 10.480469 30.730469 10.929688 30.726562 C 11.398438 30.726562 11.484375 30.714844 11.757812 30.621094 C 11.921875 30.566406 12.15625 30.460938 12.285156 30.394531 C 12.492188 30.277344 13.039062 29.828125 13.214844 29.628906 L 13.289062 29.546875 L 7.253906 23.507812 L 1.214844 17.472656 Z M 0.859375 17.839844 "/>
</g>
</svg>
